<mxfile host="app.diagrams.net" agent="Mozilla/5.0 (Windows NT 10.0; Win64; x64; rv:143.0) Gecko/20100101 Firefox/143.0" version="28.2.7">
  <diagram name="Page-1" id="lns_hNizNj68wzA5K9V9">
    <mxGraphModel dx="1064" dy="605" grid="1" gridSize="10" guides="1" tooltips="1" connect="1" arrows="1" fold="1" page="1" pageScale="1" pageWidth="827" pageHeight="1169" math="0" shadow="0">
      <root>
        <mxCell id="0" />
        <mxCell id="1" parent="0" />
        <mxCell id="_nUPCz0dKUrvI2Y5BPV5-1" value="a:Airbus" style="html=1;whiteSpace=wrap;labelBackgroundColor=none;fillColor=#FAE5C7;strokeColor=#0F8B8D;fontColor=#143642;" vertex="1" parent="1">
          <mxGeometry x="110" y="320" width="110" height="50" as="geometry" />
        </mxCell>
        <mxCell id="_nUPCz0dKUrvI2Y5BPV5-2" value="t:TourDeContrôle" style="html=1;whiteSpace=wrap;labelBackgroundColor=none;fillColor=#FAE5C7;strokeColor=#0F8B8D;fontColor=#143642;" vertex="1" parent="1">
          <mxGeometry x="310" y="250" width="110" height="50" as="geometry" />
        </mxCell>
        <mxCell id="_nUPCz0dKUrvI2Y5BPV5-3" value=":Pompiers" style="html=1;whiteSpace=wrap;labelBackgroundColor=none;fillColor=#FAE5C7;strokeColor=#0F8B8D;fontColor=#143642;" vertex="1" parent="1">
          <mxGeometry x="540" y="250" width="110" height="50" as="geometry" />
        </mxCell>
        <mxCell id="_nUPCz0dKUrvI2Y5BPV5-4" value="&lt;div&gt;a2:Airbus&lt;/div&gt;&lt;div&gt;état = à_terre&lt;/div&gt;&lt;div&gt;position = piste&lt;/div&gt;" style="html=1;whiteSpace=wrap;labelBackgroundColor=none;fillColor=#FAE5C7;strokeColor=#0F8B8D;fontColor=#143642;" vertex="1" parent="1">
          <mxGeometry x="310" y="400" width="110" height="50" as="geometry" />
        </mxCell>
        <mxCell id="_nUPCz0dKUrvI2Y5BPV5-5" value="1. alerte()" style="html=1;verticalAlign=bottom;labelBackgroundColor=none;endArrow=block;endFill=1;endSize=6;align=left;rounded=0;exitX=0.5;exitY=0;exitDx=0;exitDy=0;entryX=0;entryY=0.5;entryDx=0;entryDy=0;strokeColor=#A8201A;fontColor=default;" edge="1" parent="1" source="_nUPCz0dKUrvI2Y5BPV5-1" target="_nUPCz0dKUrvI2Y5BPV5-2">
          <mxGeometry x="-1" relative="1" as="geometry">
            <mxPoint x="380" y="390" as="sourcePoint" />
            <mxPoint x="540" y="390" as="targetPoint" />
            <Array as="points">
              <mxPoint x="165" y="275" />
            </Array>
          </mxGeometry>
        </mxCell>
        <mxCell id="_nUPCz0dKUrvI2Y5BPV5-6" value="2. déplacer(piste)" style="html=1;verticalAlign=bottom;labelBackgroundColor=none;endArrow=block;endFill=1;endSize=6;align=left;rounded=0;entryX=0.5;entryY=0;entryDx=0;entryDy=0;exitX=0.5;exitY=1;exitDx=0;exitDy=0;strokeColor=#A8201A;fontColor=default;" edge="1" parent="1" source="_nUPCz0dKUrvI2Y5BPV5-2" target="_nUPCz0dKUrvI2Y5BPV5-4">
          <mxGeometry x="-0.2" y="15" relative="1" as="geometry">
            <mxPoint x="380" y="310" as="sourcePoint" />
            <mxPoint x="540" y="390" as="targetPoint" />
            <mxPoint as="offset" />
          </mxGeometry>
        </mxCell>
        <mxCell id="_nUPCz0dKUrvI2Y5BPV5-7" value="" style="endArrow=open;endFill=1;endSize=12;html=1;rounded=0;exitX=1;exitY=0.5;exitDx=0;exitDy=0;entryX=0;entryY=0.5;entryDx=0;entryDy=0;labelBackgroundColor=none;strokeColor=#A8201A;fontColor=default;" edge="1" parent="1" source="_nUPCz0dKUrvI2Y5BPV5-2" target="_nUPCz0dKUrvI2Y5BPV5-3">
          <mxGeometry width="160" relative="1" as="geometry">
            <mxPoint x="380" y="390" as="sourcePoint" />
            <mxPoint x="540" y="390" as="targetPoint" />
          </mxGeometry>
        </mxCell>
        <mxCell id="_nUPCz0dKUrvI2Y5BPV5-11" value="3.a. envoyer()" style="text;html=1;whiteSpace=wrap;strokeColor=none;fillColor=none;align=center;verticalAlign=middle;rounded=0;labelBackgroundColor=none;fontColor=#143642;" vertex="1" parent="1">
          <mxGeometry x="420" y="240" width="110" height="30" as="geometry" />
        </mxCell>
        <mxCell id="_nUPCz0dKUrvI2Y5BPV5-12" value="" style="endArrow=open;endFill=1;endSize=12;html=1;rounded=0;exitX=0.25;exitY=1;exitDx=0;exitDy=0;entryX=1;entryY=0.5;entryDx=0;entryDy=0;labelBackgroundColor=none;strokeColor=#A8201A;fontColor=default;" edge="1" parent="1" source="_nUPCz0dKUrvI2Y5BPV5-2" target="_nUPCz0dKUrvI2Y5BPV5-1">
          <mxGeometry width="160" relative="1" as="geometry">
            <mxPoint x="130" y="480" as="sourcePoint" />
            <mxPoint x="220" y="345" as="targetPoint" />
            <Array as="points">
              <mxPoint x="338" y="345" />
            </Array>
          </mxGeometry>
        </mxCell>
        <mxCell id="_nUPCz0dKUrvI2Y5BPV5-13" value="3.b. atterrir()" style="text;html=1;whiteSpace=wrap;strokeColor=none;fillColor=none;align=center;verticalAlign=middle;rounded=0;labelBackgroundColor=none;fontColor=#143642;" vertex="1" parent="1">
          <mxGeometry x="220" y="320" width="110" height="30" as="geometry" />
        </mxCell>
        <mxCell id="_nUPCz0dKUrvI2Y5BPV5-14" value="appels asynchornes" style="shape=note2;boundedLbl=1;whiteSpace=wrap;html=1;size=25;verticalAlign=top;align=center;strokeColor=#006EAF;fontColor=#ffffff;fillColor=#1ba1e2;" vertex="1" parent="1">
          <mxGeometry x="430" y="120" width="170" height="60" as="geometry" />
        </mxCell>
        <mxCell id="_nUPCz0dKUrvI2Y5BPV5-15" value="" style="endArrow=none;dashed=1;html=1;dashPattern=1 3;strokeWidth=2;rounded=0;strokeColor=#A8201A;fontColor=#143642;fillColor=#FAE5C7;entryX=0.119;entryY=1.05;entryDx=0;entryDy=0;entryPerimeter=0;" edge="1" parent="1" target="_nUPCz0dKUrvI2Y5BPV5-14">
          <mxGeometry width="50" height="50" relative="1" as="geometry">
            <mxPoint x="440" y="250" as="sourcePoint" />
            <mxPoint x="480" y="360" as="targetPoint" />
          </mxGeometry>
        </mxCell>
        <mxCell id="_nUPCz0dKUrvI2Y5BPV5-16" value="" style="endArrow=none;dashed=1;html=1;dashPattern=1 3;strokeWidth=2;rounded=0;strokeColor=#A8201A;fontColor=#143642;fillColor=#FAE5C7;exitX=0.25;exitY=0;exitDx=0;exitDy=0;" edge="1" parent="1" source="_nUPCz0dKUrvI2Y5BPV5-13">
          <mxGeometry width="50" height="50" relative="1" as="geometry">
            <mxPoint x="430" y="410" as="sourcePoint" />
            <mxPoint x="450" y="180" as="targetPoint" />
          </mxGeometry>
        </mxCell>
        <mxCell id="_nUPCz0dKUrvI2Y5BPV5-17" value="attributs de l&#39;instance" style="shape=note2;boundedLbl=1;whiteSpace=wrap;html=1;size=25;verticalAlign=top;align=center;strokeColor=#006EAF;fontColor=#ffffff;fillColor=#1ba1e2;" vertex="1" parent="1">
          <mxGeometry x="500" y="395" width="170" height="60" as="geometry" />
        </mxCell>
        <mxCell id="_nUPCz0dKUrvI2Y5BPV5-18" value="" style="endArrow=none;dashed=1;html=1;dashPattern=1 3;strokeWidth=2;rounded=0;strokeColor=#A8201A;fontColor=#143642;fillColor=#FAE5C7;exitX=1;exitY=0.5;exitDx=0;exitDy=0;entryX=0;entryY=0.5;entryDx=0;entryDy=0;entryPerimeter=0;" edge="1" parent="1" source="_nUPCz0dKUrvI2Y5BPV5-4" target="_nUPCz0dKUrvI2Y5BPV5-17">
          <mxGeometry width="50" height="50" relative="1" as="geometry">
            <mxPoint x="430" y="410" as="sourcePoint" />
            <mxPoint x="480" y="360" as="targetPoint" />
          </mxGeometry>
        </mxCell>
      </root>
    </mxGraphModel>
  </diagram>
</mxfile>
